<svg xmlns="http://www.w3.org/2000/svg" width="51" height="42" viewBox="0 0 51 42" fill="none">
  <path d="M30.553 5.06878C30.5486 6.07961 30.2495 7.06681 29.6929 7.90752C29.1364 8.74823 28.3469 9.40532 27.4227 9.797C26.4979 10.1876 25.4785 10.2908 24.4951 10.0934C23.5117 9.89602 22.6092 9.407 21.9033 8.68903C21.1945 7.98949 20.7095 7.09211 20.5106 6.11234C20.3198 5.12111 20.422 4.0952 20.8045 3.16204C21.1264 2.38734 21.6311 1.70372 22.2749 1.17068C22.9186 0.637648 23.6818 0.27136 24.498 0.103704C25.3143 -0.0639515 26.1587 -0.0278922 26.958 0.208743C27.7572 0.445379 28.4869 0.875418 29.0837 1.46142C30.0232 2.42337 30.5508 3.71868 30.553 5.06878Z" fill="white"/>
  <path d="M31.0765 12.7471H30.2588H28.0357L25.7487 20.4127H25.2504L22.9634 12.7471H20.2931H19.9226L15.3613 22.9765L20.1014 25.6176H30.8976L35.6377 22.9765L31.0765 12.7471Z" fill="white"/>
  <path d="M47 27H4V42H47V27Z" fill="white"/>
  <path d="M51 22H0V26H51V22Z" fill="white"/>
</svg>