<svg xmlns="http://www.w3.org/2000/svg" width="47" height="45" viewBox="0 0 47 45" fill="none">
  <path d="M3.66915 26.2797L0.000652313 17.4753L3.30188 9.771H5.50382L8.80589 15.2742H9.17233V9.771H21.278L22.929 15.2742H23.2963L24.9473 9.771H37.0538V15.2742H37.4202L40.7214 9.771H42.9234L46.2246 17.108L42.5561 26.2797L46.2246 44.9886H44.3908L36.6865 26.2797H36.3201L37.2735 32.296L34.8518 44.9895H33.0172V13.4403H28.2485V26.6469L30.0832 44.9895H27.8821L23.4799 26.6469V26.6109H23.1126V44.9903H20.9115L17.9767 26.6478V13.4412H13.2073V44.9903H11.3734L8.95179 32.2969L9.90602 26.2805H9.53875L1.83532 44.9895H0.000652313L3.66915 26.2797Z" fill="white"/>
  <path d="M35.2187 4.2686C35.2187 4.99416 35.4338 5.70343 35.8369 6.30671C36.24 6.90999 36.813 7.38019 37.4833 7.65785C38.1536 7.93551 38.8912 8.00816 39.6029 7.86661C40.3145 7.72506 40.9681 7.37567 41.4812 6.86262C41.9942 6.34957 42.3436 5.69591 42.4852 4.98429C42.6267 4.27267 42.5541 3.53506 42.2764 2.86472C41.9988 2.19439 41.5286 1.62145 40.9253 1.21835C40.322 0.815251 39.6127 0.600098 38.8872 0.600098C37.9142 0.600098 36.9811 0.9866 36.2931 1.67458C35.6052 2.36255 35.2187 3.29565 35.2187 4.2686Z" fill="white"/>
  <path d="M19.444 4.2686C19.444 4.99416 19.6592 5.70343 20.0623 6.30671C20.4654 6.90999 21.0383 7.38019 21.7086 7.65785C22.379 7.93551 23.1166 8.00816 23.8282 7.86661C24.5398 7.72506 25.1935 7.37567 25.7065 6.86262C26.2196 6.34957 26.569 5.69591 26.7105 4.98429C26.8521 4.27267 26.7794 3.53506 26.5018 2.86472C26.2241 2.19439 25.7539 1.62145 25.1506 1.21835C24.5473 0.815251 23.8381 0.600098 23.1125 0.600098C22.1396 0.600098 21.2065 0.9866 20.5185 1.67458C19.8305 2.36255 19.444 3.29565 19.444 4.2686Z" fill="white"/>
  <path d="M3.66885 4.2686C3.66885 4.99416 3.88401 5.70343 4.28711 6.30671C4.69021 6.90999 5.26315 7.38019 5.93348 7.65785C6.60381 7.93551 7.34143 8.00816 8.05305 7.86661C8.76467 7.72506 9.41833 7.37567 9.93138 6.86262C10.4444 6.34957 10.7938 5.69591 10.9354 4.98429C11.0769 4.27267 11.0043 3.53506 10.7266 2.86472C10.4489 2.19439 9.97875 1.62145 9.37547 1.21835C8.77219 0.815251 8.06292 0.600098 7.33736 0.600098C6.36441 0.600098 5.43131 0.9866 4.74333 1.67458C4.05536 2.36255 3.66885 3.29565 3.66885 4.2686Z" fill="white"/>
</svg>