<svg xmlns="http://www.w3.org/2000/svg" width="77" height="43" viewBox="0 0 77 43" fill="none">
  <path d="M70.9007 38.3601H5.92505V0.419922H70.9007V38.3601ZM7.92 36.3516H68.9058V2.4284H7.92V36.3516Z" fill="white"/>
  <mask id="mask0_1_160" style="mask-type:luminance" maskUnits="userSpaceOnUse" x="6" y="0" width="65" height="38">
    <path d="M70.0025 0.419922H6.82227V37.1952H70.0025V0.419922Z" fill="white"/>
  </mask>
  <g mask="url(#mask0_1_160)">
    <path d="M27.6897 7.73034C27.7026 8.54508 27.4691 9.3445 27.0201 10.0225C26.5712 10.7005 25.928 11.225 25.1761 11.5264C24.4396 11.8404 23.6264 11.9244 22.842 11.7674C22.0562 11.6165 21.3336 11.2314 20.768 10.6619C20.2024 10.0925 19.8198 9.36499 19.67 8.5739C19.5078 7.78614 19.5842 6.96749 19.8895 6.22398C20.2093 5.48625 20.7275 4.8532 21.3857 4.39626C22.0544 3.95111 22.8383 3.71364 23.64 3.71338C24.6982 3.71338 25.713 4.13659 26.4613 4.88992C27.2095 5.64325 27.6299 6.66498 27.6299 7.73034H27.6897Z" fill="white"/>
    <path d="M43.709 20.8053C43.9199 23.0553 44.9569 25.1452 46.6171 26.6664C48.2774 28.1875 50.4415 29.0305 52.6863 29.0305C54.9311 29.0305 57.0952 28.1875 58.7554 26.6664C60.4157 25.1452 61.4526 23.0553 61.6636 20.8053H52.7262V11.7671C50.3416 11.7671 48.054 12.718 46.3641 14.4119C44.6742 16.1057 43.7195 18.4045 43.709 20.8053Z" fill="white"/>
    <path d="M55.2988 9.17676V18.2149H64.2362C64.2258 15.828 63.2821 13.5413 61.6094 11.8497C59.9367 10.1581 57.6696 9.19786 55.2988 9.17676Z" fill="white"/>
    <path d="M15.54 52.8006H17.535L26.0535 32.0932H26.4524L25.3951 38.7412L28.0684 52.8006H30.0633V17.5518L43.2699 15.8044V13.7959H25.6545V19.8213H25.2555L21.6047 13.7959H19.1908L15.54 21.8298L19.5299 31.9927L15.54 52.8006Z" fill="white"/>
  </g>
  <path d="M76.8257 39.8462H0V42.9995H76.8257V39.8462Z" fill="white"/>
</svg>