<svg width="290" height="243" viewBox="0 0 290 243" fill="none" xmlns="http://www.w3.org/2000/svg">
<path fill-rule="evenodd" clip-rule="evenodd" d="M258.465 173.878C252.159 191.531 238.064 205.719 222.537 216.222C208.404 225.781 190.205 225.07 174.168 230.893C159.18 236.336 146.714 249.691 130.769 249.544C114.793 249.396 102.561 235.755 87.6226 230.091C70.5447 223.616 47.9956 227.482 36.0782 213.641C24.3397 200.009 27.9231 178.94 28.088 160.951C28.2343 144.997 31.5243 129.523 36.987 114.533C42.1624 100.331 48.5106 86.3495 59.177 75.6392C69.5494 65.2241 84.8543 62.3634 97.0757 54.1965C111.955 44.2533 121.507 24.215 139.279 22.1113C156.574 20.064 172.292 33.1146 186.159 43.6513C198.981 53.3948 205.081 69.0776 216.296 80.6345C229.346 94.0817 250.091 100.411 257.812 117.485C265.657 134.831 264.87 155.95 258.465 173.878Z" fill="#99B6FF"/>
<path d="M84.9093 48.3477L78.7119 78.989L94.1354 70.8512L104.981 83.826L110.568 53.3923C101.212 51.7315 93.7355 50.4236 84.9093 48.3477Z" fill="#FF0532"/>
<path d="M25.7433 25.6885L10.6396 53.2885L27.9423 49.6244L34.5096 64.9555L49.2233 36.9818C41.2167 33.6346 33.3798 29.8653 25.7433 25.6885Z" fill="#FF0532"/>
<path d="M54.2213 38.9124L44.7354 69.3565L60.9085 62.485L70.4644 76.2798L78.9908 46.936C70.7443 45.161 62.8277 41.7149 54.2213 38.9124Z" fill="#EBEBEB"/>
<path d="M116.266 54.2019L113.417 85.3415L127.841 75.8231L139.966 87.7911L142.325 56.4959C133.968 56.1741 125.262 55.5201 116.266 54.2019Z" fill="#EBEBEB"/>
<path d="M147.224 56.8696L148.533 88.6112L161.528 77.4943L175.122 88.0818L173.333 56.3921C164.956 56.9837 156.28 57.1602 147.224 56.8696Z" fill="#FF0532"/>
<path d="M211.835 51.3059L219.612 81.5632L229.927 68.2874L245.411 76.3733L236.495 45.6489C228.468 47.6938 220.721 49.9773 211.835 51.3059Z" fill="#FF0532"/>
<path d="M179.021 55.9561L184.118 86.5352L195.673 74.0274L210.417 83.0683L205.04 52.5515C196.813 54.067 188.027 55.2399 179.021 55.9561Z" fill="#EBEBEB"/>
<path d="M197.942 67.8306L198.272 70.218L190.745 71.3182L189.476 61.9245L196.832 60.8865L197.152 63.2738L192.744 63.9174L192.944 64.9554L196.773 64.3949L197.082 66.6784L193.254 67.2286L193.424 68.4638L197.942 67.8306Z" fill="black"/>
<path d="M179.021 55.9561L184.118 86.5352L195.673 74.0274L210.417 83.0683L205.04 52.5515C196.813 54.067 188.027 55.2399 179.021 55.9561Z" fill="#EBEBEB"/>
<path d="M264.912 36.7325C259.355 38.9538 253.507 40.7599 247.58 42.7113C244.581 43.6247 241.582 44.424 238.483 45.3063L233.855 46.6038L229.147 47.7248L219.601 49.9772L209.826 51.9079L204.888 52.8732L199.89 53.6413C196.531 54.1188 193.163 54.6793 189.754 55.1049L179.568 56.1428L177.04 56.392L174.511 56.5269L169.513 56.7656C162.836 57.2327 156.248 57.0355 149.771 57.0874C146.542 56.9732 143.334 56.8072 140.155 56.6618C138.576 56.5892 136.986 56.5373 135.417 56.4335L130.739 56.0079C127.64 55.7069 124.572 55.4889 121.543 55.1256L112.547 53.9216C109.548 53.579 106.709 52.9977 103.85 52.4995C100.992 52.0013 98.1629 51.5446 95.414 50.9218C89.9064 49.6658 84.5287 48.5967 79.4208 47.1124C76.8619 46.4065 74.333 45.7838 71.884 45.0364L64.697 42.7632L61.2185 41.6526L57.8 40.3758L51.2927 37.9677C37.9495 32.8729 25.1636 26.3248 13.1489 18.4328L3.40298 11.9454L0.874055 10.2535C0.304296 9.86946 0.0244141 9.66187 0.0244141 9.66187L0.904042 10.2016L3.46296 11.8624L13.2588 18.246C25.2987 26.0623 38.0888 32.5569 51.4227 37.6252L57.9299 40.0437L61.2885 41.2685L64.777 42.3688L71.994 44.5797C74.4429 45.3063 76.9918 45.9291 79.5208 46.6557C84.6086 48.1192 89.9863 49.178 95.514 50.4339C98.2628 51.0463 101.092 51.4719 103.94 51.9909C106.789 52.5099 109.668 53.0289 112.627 53.4026L121.493 54.5755C124.492 54.9388 127.59 55.1464 130.689 55.4474L135.357 55.8626C136.926 55.9664 138.496 56.0183 140.085 56.0909C143.254 56.2259 146.452 56.4023 149.681 56.5061C156.148 56.5061 162.726 56.6515 169.393 56.1844L174.391 55.9352L176.91 55.8107L179.438 55.5616L189.604 54.5236C193.013 54.1188 196.371 53.4856 199.72 53.06L204.718 52.2919L209.656 51.3266L219.412 49.4063L228.948 47.1643L233.656 46.0432L238.264 44.7458C241.322 43.8739 244.371 43.0746 247.35 42.1716C253.277 40.2201 259.115 38.4244 264.662 36.2135" fill="black"/>
<path d="M10.2906 16.471C9.83444 16.6827 9.3589 16.8461 8.87119 16.9588C7.94158 17.2183 6.58216 17.592 4.87288 17.893C3.93632 18.0934 2.97915 18.1701 2.02408 18.1214C1.85982 18.1122 1.699 18.069 1.55114 17.9941C1.40328 17.9193 1.27138 17.8144 1.16326 17.6857C1.05514 17.5569 0.972995 17.407 0.921688 17.2447C0.870382 17.0824 0.850958 16.9111 0.864567 16.7409C0.982553 16.4343 1.16924 16.1614 1.40915 15.9448C1.64905 15.7281 1.93525 15.574 2.24398 15.4953C3.43585 14.9781 4.71903 14.7265 6.01045 14.7569C7.30187 14.7873 8.57275 15.099 9.74082 15.6717L9.46094 16.17C9.20105 15.952 8.92117 15.7132 8.65128 15.4538C6.65378 13.5533 5.19212 11.1241 4.42307 8.42659C4.35278 8.08129 4.3735 7.7227 4.48304 7.38861C4.56111 7.1917 4.70586 7.03127 4.89 6.93758C5.07414 6.84388 5.28494 6.8234 5.48262 6.87999C5.78983 6.98465 6.06546 7.17068 6.28228 7.41974C6.4822 7.63772 6.68211 7.83494 6.86204 8.04254C7.54015 8.81492 8.13664 9.66051 8.64129 10.5648C9.3821 11.8762 9.89314 13.3136 10.1507 14.8102C10.2255 15.2148 10.2756 15.6239 10.3006 16.035C10.3243 16.1793 10.3243 16.3267 10.3006 16.471C10.3006 16.471 10.2006 15.8897 9.96073 14.8621C9.62644 13.414 9.07313 12.0302 8.32142 10.7621C7.80546 9.89181 7.20598 9.07804 6.53218 8.33317C6.16233 7.9595 5.7725 7.4405 5.36267 7.29519C5.27 7.27279 5.17259 7.28834 5.09068 7.3386C5.00877 7.38886 4.94866 7.46997 4.92286 7.56506C4.8512 7.81569 4.8512 8.08254 4.92286 8.33317C5.70448 10.8913 7.11741 13.1923 9.02113 15.0074C9.29101 15.2565 9.5509 15.4849 9.81079 15.7029C9.85788 15.7548 9.8841 15.8235 9.8841 15.8949C9.8841 15.9663 9.85788 16.0349 9.81079 16.0869C9.77606 16.1324 9.72812 16.1651 9.6741 16.18C9.62008 16.195 9.56286 16.1915 9.51092 16.17C8.40626 15.6333 7.20724 15.338 5.98816 15.3023C4.76909 15.2666 3.55594 15.4913 2.42391 15.9624C1.91412 16.1596 1.42433 16.4502 1.31438 16.8447C1.20442 17.2391 1.62425 17.6231 2.06406 17.6854C2.98303 17.7501 3.90616 17.6978 4.8129 17.5297C6.51218 17.2806 7.88161 16.9692 8.81121 16.7616C9.29648 16.6257 9.79105 16.5285 10.2906 16.471Z" fill="black"/>
<path d="M263.515 36.9298C263.515 36.9298 263.315 36.7222 263.075 36.2863C262.735 35.6715 262.451 35.0252 262.226 34.3556C261.885 33.3554 261.709 32.3026 261.706 31.2417C261.713 30.607 261.796 29.9757 261.956 29.3629C262.038 29.0348 262.148 28.7151 262.286 28.408C262.406 28.0323 262.632 27.703 262.936 27.4634C263.045 27.3925 263.171 27.355 263.3 27.355C263.429 27.355 263.556 27.3925 263.665 27.4634C263.837 27.589 263.972 27.7614 264.055 27.9616C264.178 28.2798 264.281 28.6057 264.365 28.9373C264.508 29.5502 264.595 30.1758 264.625 30.8057C264.661 31.8503 264.577 32.8957 264.375 33.9197C264.231 34.8771 263.962 35.8095 263.575 36.6911C263.495 36.6911 263.755 35.5908 264.005 33.8574C264.158 32.8449 264.205 31.8183 264.145 30.7953C264.103 30.1996 264.009 29.609 263.865 29.0308C263.787 28.734 263.69 28.4427 263.575 28.1588C263.445 27.8786 263.315 27.7955 263.195 27.8786C262.998 28.0653 262.85 28.3011 262.766 28.5637C262.639 28.8483 262.535 29.1434 262.456 29.4459C262.303 30.0144 262.215 30.5998 262.196 31.1898C262.173 32.2082 262.304 33.224 262.586 34.1999C263.065 35.8918 263.595 36.9298 263.515 36.9298Z" fill="black"/>
<path d="M263.633 36.6807C264.415 36.0951 265.269 35.6203 266.172 35.2691C267.134 34.8339 268.14 34.5135 269.171 34.3141C269.791 34.194 270.42 34.1383 271.05 34.1481C271.39 34.1401 271.729 34.1964 272.05 34.3141C272.249 34.3924 272.427 34.5221 272.565 34.6909C272.703 34.8598 272.797 35.0623 272.839 35.2795C272.855 35.5077 272.803 35.7354 272.691 35.9321C272.578 36.1288 272.41 36.285 272.21 36.3797C271.89 36.5372 271.555 36.659 271.21 36.743C270.6 36.9299 270.001 37.0856 269.421 37.2205C268.395 37.4638 267.344 37.5719 266.292 37.5423C265.314 37.5844 264.344 37.3513 263.483 36.8676C264.411 37.0367 265.35 37.1338 266.292 37.1582C267.304 37.127 268.31 36.9808 269.291 36.7223C269.861 36.5873 270.44 36.4212 271.05 36.224C271.66 36.0268 272.34 35.8088 272.26 35.3521C272.18 34.8954 271.55 34.6671 270.95 34.6878C270.351 34.6706 269.752 34.7123 269.161 34.8124C268.156 34.9846 267.168 35.2557 266.212 35.622C264.663 36.2552 263.673 36.7638 263.633 36.6807Z" fill="black"/>
<path d="M31.5626 44.4533C31.7103 44.1504 31.6815 43.8286 31.4761 43.488C31.2748 43.1495 30.9913 42.8074 30.6255 42.4617C30.2658 42.114 29.9164 41.7452 29.5773 41.3554C29.2422 40.9677 29.0212 40.5025 28.9143 39.96C28.8074 39.4174 28.8987 38.8495 29.188 38.2562C29.545 37.5241 30.1312 37.0474 30.9466 36.826C31.7661 36.6067 32.6274 36.7345 33.5306 37.2095C33.887 37.397 34.2097 37.6222 34.4987 37.8852C34.7898 38.144 35.0119 38.3877 35.1651 38.6163C35.3244 38.8428 35.4532 39.0586 35.5517 39.2637C35.6562 39.4667 35.7214 39.6305 35.7471 39.755L35.7949 39.9388L34.0769 40.5815C34.057 40.4971 34.023 40.3893 33.9749 40.2583C33.933 40.1252 33.8072 39.9137 33.5975 39.6236C33.3878 39.3336 33.1351 39.1109 32.8394 38.9554C32.483 38.7679 32.1492 38.7113 31.8382 38.7857C31.5312 38.8621 31.312 39.035 31.1807 39.3042C31.033 39.6072 31.0598 39.9279 31.2611 40.2664C31.4685 40.6028 31.75 40.9438 32.1056 41.2894C32.4653 41.6372 32.8147 42.0059 33.1539 42.3958C33.4971 42.7877 33.7221 43.255 33.829 43.7975C33.9359 44.3401 33.8446 44.908 33.5553 45.5013C33.147 46.3385 32.5199 46.8678 31.674 47.0891C30.8323 47.3125 29.897 47.1537 28.8682 46.6126C28.4632 46.3996 28.096 46.1404 27.7666 45.835C27.4391 45.5359 27.1868 45.2499 27.0095 44.9769C26.8362 44.7061 26.6924 44.448 26.5779 44.2028C26.4634 43.9575 26.3902 43.7631 26.3585 43.6195L26.2957 43.3883L27.986 42.8181C28.0099 42.9153 28.0458 43.0452 28.0937 43.2078C28.1477 43.3684 28.3088 43.6328 28.5769 44.0012C28.8451 44.3696 29.1736 44.656 29.5625 44.8605C30.012 45.0969 30.4157 45.1718 30.7736 45.0851C31.1354 45.0005 31.3984 44.7899 31.5626 44.4533Z" fill="black"/>
<path d="M63.1802 48.9311L64.3538 53.7435L67.6354 50.1336L69.7971 50.7171L64.8425 56.1196L63.965 59.6255L61.9351 59.0776L62.8126 55.5717L61.0186 48.3477L63.1802 48.9311Z" fill="black"/>
<path d="M224.72 54.0445L227.851 57.7957L229.22 53.0392L231.403 52.5515L229.316 59.6901L230.05 63.2315L227.999 63.6895L227.266 60.1481L222.536 54.5322L224.72 54.0445Z" fill="black"/>
<path d="M99.2357 58.714L101.298 59.0666L99.7111 69.0775L97.9238 68.7719L94.1887 61.6011L93.1803 67.9609L91.1109 67.6071L92.6982 57.5962L94.4922 57.9029L98.2262 65.0807L99.2357 58.714Z" fill="black"/>
<path d="M126.03 70.0501L131.236 70.5574L131.061 72.5016L123.766 71.7909L124.679 61.6895L131.831 62.3863L131.655 64.3375L126.59 63.8441L126.408 65.8658L130.36 66.2509L130.185 68.1951L126.232 67.81L126.03 70.0501Z" fill="black"/>
<path d="M157.46 73.1608L156.687 63.0469L160.997 62.6915C161.961 62.612 162.782 62.8684 163.46 63.4607C164.142 64.0479 164.519 64.8071 164.59 65.738C164.621 66.1424 164.589 66.526 164.494 66.8887C164.399 67.2514 164.276 67.5478 164.125 67.7779C163.978 68.0076 163.825 68.2072 163.665 68.3765C163.505 68.5459 163.366 68.6638 163.248 68.7303L163.079 68.8436L165.456 72.5015L163.23 72.6851L161.085 69.299L159.28 69.4479L159.551 72.9885L157.46 73.1608ZM162.507 65.9099C162.476 65.5149 162.325 65.1986 162.052 64.9609C161.783 64.7228 161.458 64.6194 161.078 64.6507L158.927 64.8282L159.131 67.5012L161.283 67.3238C161.663 67.2925 161.968 67.1419 162.198 66.8722C162.432 66.5974 162.535 66.2766 162.507 65.9099Z" fill="black"/>
<path d="M194.004 64.5899L197.806 64.0807L198.27 67.8137C198.24 67.8653 198.19 67.9433 198.121 68.0477C198.055 68.1469 197.901 68.3268 197.659 68.5875C197.421 68.843 197.161 69.0774 196.881 69.2909C196.605 69.4991 196.232 69.706 195.764 69.9114C195.299 70.1163 194.811 70.2531 194.297 70.3219C192.821 70.5197 191.51 70.1745 190.365 69.2863C189.224 68.3928 188.564 67.2233 188.385 65.7778C188.205 64.3323 188.558 63.0295 189.444 61.8693C190.334 60.7086 191.518 60.0293 192.994 59.8315C193.503 59.7633 193.996 59.7687 194.472 59.8475C194.948 59.9216 195.345 60.0373 195.662 60.1946C195.984 60.3513 196.269 60.5128 196.519 60.6791C196.773 60.8448 196.958 60.9889 197.074 61.1113L197.255 61.301L196.108 62.8457C196.076 62.8119 196.032 62.7656 195.974 62.7067C195.92 62.6426 195.8 62.5398 195.613 62.3984C195.431 62.2564 195.235 62.1375 195.026 62.0418C194.817 61.9414 194.549 61.8609 194.221 61.8002C193.892 61.7348 193.563 61.7241 193.235 61.7682C192.33 61.8894 191.613 62.3064 191.083 63.0194C190.554 63.7323 190.348 64.5589 190.465 65.4992C190.581 66.4395 190.983 67.1847 191.669 67.7348C192.355 68.2849 193.151 68.4994 194.056 68.3782C194.488 68.3203 194.874 68.202 195.213 68.0234C195.552 67.8401 195.785 67.6709 195.912 67.516L196.099 67.3055L195.929 65.9372L194.2 66.1688L194.004 64.5899Z" fill="black"/>
<path d="M89.4072 108.395C89.4072 108.395 97.2039 93.9464 100.313 94.0191C100.313 94.0191 111.178 99.0325 117.116 114.779H122.503C122.503 114.779 125.602 102.323 140.126 95.6798C140.126 95.6798 148.042 110.886 148.332 110.741C143.145 115.412 136.554 118.061 129.69 118.235C118.065 118.619 101.222 117.197 101.222 117.197C101.222 117.197 91.0665 112.589 89.4072 108.395Z" fill="#EBEBEB"/>
<g opacity="0.3">
<path opacity="0.3" d="M125.251 116.855C125.251 116.855 137.536 109.973 147.332 110.845C147.332 110.886 135.777 120.384 125.251 116.855Z" fill="black"/>
</g>
<g opacity="0.3">
<path opacity="0.3" d="M90.6064 108.333C90.6064 108.333 106.3 109.547 114.366 117.342C114.366 117.342 99.3028 118.806 90.6064 108.333Z" fill="black"/>
</g>
<path d="M147.753 110.679C147.753 110.772 146.394 110.679 144.224 110.897C141.394 111.197 138.602 111.813 135.898 112.734C132.729 113.772 129.901 115.028 127.901 115.848C126.831 116.382 125.725 116.836 124.593 117.208C124.849 117.004 125.127 116.833 125.422 116.699C125.962 116.408 126.762 115.993 127.751 115.505C130.343 114.21 133.015 113.094 135.748 112.163C138.482 111.225 141.321 110.653 144.194 110.461C145.063 110.406 145.935 110.406 146.803 110.461C147.128 110.485 147.448 110.559 147.753 110.679Z" fill="black"/>
<path d="M114.356 117.498C114.296 117.571 113.256 116.398 111.217 115.017C105.797 111.542 99.691 109.385 93.3548 108.707C90.9258 108.447 89.3564 108.499 89.3564 108.395C89.7044 108.316 90.0598 108.278 90.416 108.281C91.1057 108.281 92.1053 108.281 93.3348 108.281C96.5437 108.509 99.7097 109.176 102.751 110.264C105.803 111.322 108.705 112.802 111.377 114.665C112.178 115.241 112.927 115.89 113.616 116.606C113.902 116.865 114.151 117.166 114.356 117.498Z" fill="black"/>
<path d="M65.9072 204.165L169.767 205.388L170.722 117.923L66.8628 116.699L65.9072 204.165Z" fill="#FF0532"/>
<path d="M100.395 204.573L103.413 204.608L104.369 117.143L101.35 117.107L100.395 204.573Z" fill="#FAFAFA"/>
<path d="M113.727 117.093C113.817 117.218 103.242 125.605 90.1072 135.777C76.9728 145.949 66.2673 154.222 66.1773 154.139C66.0874 154.056 76.6629 145.628 89.7973 135.455C102.932 125.283 113.647 116.979 113.727 117.093Z" fill="white"/>
<path d="M90.8665 116.979C90.9564 117.093 85.5387 121.463 78.7816 126.736C72.0245 132.009 66.4568 136.182 66.3769 136.078C66.2969 135.974 71.7046 131.594 78.4617 126.321C85.2189 121.048 90.7865 116.855 90.8665 116.979Z" fill="white"/>
<path d="M135.118 117.498C135.208 117.612 119.785 130.151 100.683 145.524C81.5807 160.896 65.9973 173.165 65.9173 173.041C65.8373 172.916 81.2508 160.398 100.363 145.015C119.475 129.632 135.028 117.384 135.118 117.498Z" fill="white"/>
<path d="M157.258 118.007C157.348 118.121 137.016 134.614 111.857 154.793C86.6976 174.971 66.2162 191.278 66.1263 191.122C66.0363 190.967 86.3677 174.515 111.537 154.336C136.706 134.158 157.168 117.893 157.258 118.007Z" fill="white"/>
<path d="M170.632 125.74C170.722 125.854 148.381 143.479 120.743 165.09C93.1047 186.701 70.6342 204.139 70.5442 204.045C70.4543 203.952 92.7848 186.306 120.433 164.685C148.081 143.064 170.542 125.615 170.632 125.74Z" fill="white"/>
<path d="M170.453 142.161C170.543 142.285 152.84 156.277 130.919 173.425C108.998 190.572 91.146 204.378 91.056 204.253C90.966 204.129 108.669 190.147 130.599 172.989C152.53 155.831 170.373 142.047 170.453 142.161Z" fill="white"/>
<path d="M170.263 160.076C170.343 160.201 157.698 170.249 142.005 182.518C126.312 194.787 113.527 204.637 113.437 204.523C113.347 204.409 126.002 194.361 141.695 182.082C157.388 169.802 170.173 159.962 170.263 160.076Z" fill="white"/>
<path d="M170.063 178.501C170.142 178.615 162.696 184.593 153.41 191.849C144.123 199.105 136.547 204.896 136.417 204.772C136.287 204.647 143.784 198.679 153.06 191.423C162.336 184.168 169.953 178.376 170.063 178.501Z" fill="white"/>
<path opacity="0.3" d="M139.599 205.026L169.765 205.382L170.72 117.916L140.555 117.561L139.599 205.026Z" fill="black"/>
<path d="M66.3642 163.095L170.224 164.318L170.253 161.651L66.3934 160.427L66.3642 163.095Z" fill="#FAFAFA"/>
<path d="M154.403 205.207L157.052 205.239L158.007 117.773L155.359 117.742L154.403 205.207Z" fill="#FAFAFA"/>
<path d="M139.405 204.253C139.382 204.008 139.382 203.761 139.405 203.516V201.388C139.405 199.499 139.405 196.821 139.405 193.489C139.455 186.722 139.525 177.328 139.605 166.585H140.115C140.115 167.56 140.115 168.661 140.115 169.699H139.605C139.605 167.768 139.605 165.744 139.665 163.678C139.835 150.776 139.995 139.099 140.105 130.587C140.185 126.435 140.245 122.968 140.295 120.56C140.295 119.408 140.355 118.484 140.375 117.83V117.125C140.362 117.042 140.362 116.958 140.375 116.875C140.388 116.958 140.388 117.042 140.375 117.125C140.375 117.311 140.375 117.55 140.375 117.83C140.375 118.505 140.375 119.408 140.375 120.56C140.375 122.979 140.375 126.394 140.375 130.587C140.295 139.099 140.195 150.776 140.085 163.689C140.085 165.765 140.085 167.778 140.015 169.709H139.505C139.505 168.671 139.505 167.633 139.505 166.595H140.015C139.865 177.328 139.735 186.722 139.635 193.5C139.565 196.821 139.515 199.499 139.475 201.399C139.475 202.281 139.425 202.987 139.405 203.475C139.421 203.734 139.421 203.994 139.405 204.253Z" fill="black"/>
<path d="M217.163 190.884H166.414C165.404 190.884 164.585 191.734 164.585 192.783V203.693C164.585 204.742 165.404 205.592 166.414 205.592H217.163C218.173 205.592 218.992 204.742 218.992 203.693V192.783C218.992 191.734 218.173 190.884 217.163 190.884Z" fill="#FF0532"/>
<path d="M217.613 176.715H165.964C165.203 176.715 164.585 177.357 164.585 178.148V189.991C164.585 190.782 165.203 191.424 165.964 191.424H217.613C218.374 191.424 218.992 190.782 218.992 189.991V178.148C218.992 177.357 218.374 176.715 217.613 176.715Z" fill="black"/>
<path d="M12.3806 156.464H62.2195C63.0248 156.383 63.83 156.62 64.4746 157.128C65.1192 157.636 65.556 158.377 65.698 159.205L72.3452 201.471H98.5641C98.9727 201.518 99.3505 201.72 99.6248 202.038C99.8992 202.355 100.051 202.767 100.051 203.194C100.051 203.621 99.8992 204.033 99.6248 204.351C99.3505 204.669 98.9727 204.871 98.5641 204.917H14.7996L9.07199 160.793C8.98341 160.278 9.00124 159.75 9.1243 159.243C9.24736 158.736 9.47284 158.263 9.78575 157.853C10.0987 157.444 10.4919 157.108 10.9393 156.869C11.3866 156.629 11.878 156.491 12.3806 156.464Z" fill="#E0E0E0"/>
<path d="M12.3789 156.464C12.0888 156.486 11.8012 156.535 11.5193 156.609C10.7029 156.872 10.0133 157.447 9.59007 158.218C9.27257 158.776 9.09394 159.408 9.07029 160.056C9.06669 160.431 9.09681 160.807 9.16025 161.177C9.16025 161.561 9.26021 161.965 9.32018 162.391C9.54009 164.073 9.79998 166.014 10.0799 168.193C11.2194 176.923 12.8687 189.493 14.8878 204.907L14.7979 204.834H95.7637H98.5325C98.7032 204.835 98.8727 204.804 99.0323 204.741C99.352 204.605 99.6143 204.354 99.772 204.035C99.9343 203.718 99.9965 203.356 99.9498 203C99.9032 202.644 99.7501 202.313 99.5121 202.052C99.2779 201.793 98.9546 201.64 98.6125 201.627H72.2536V201.533C70.0346 187.355 67.9554 174.12 66.0962 162.246C65.9863 161.498 65.8663 160.761 65.7564 160.035C65.6964 159.671 65.6464 159.298 65.5764 158.997C65.5008 158.649 65.358 158.32 65.1566 158.031C64.7577 157.455 64.1839 157.035 63.5273 156.838C63.2024 156.735 62.8669 156.672 62.5277 156.651C62.1979 156.651 61.848 156.651 61.5281 156.651H39.5574H19.5659H14.2181H19.5659H39.5574H53.5515H61.4482C61.788 156.651 62.1279 156.651 62.4478 156.651C62.7875 156.674 63.1232 156.74 63.4473 156.848C64.1419 157.05 64.7509 157.489 65.1766 158.094C65.3784 158.412 65.5271 158.763 65.6164 159.132C65.6864 159.505 65.7364 159.869 65.7963 160.232C65.9163 160.969 66.0262 161.706 66.1462 162.443C68.0154 174.317 70.1445 187.541 72.3336 201.731L72.2336 201.637H98.6425C99.0228 201.664 99.3796 201.838 99.6421 202.125C99.9141 202.42 100.09 202.795 100.146 203.2C100.201 203.604 100.134 204.016 99.9519 204.378C99.7671 204.745 99.4624 205.032 99.0923 205.187C98.9074 205.262 98.7109 205.3 98.5125 205.301H95.7837H14.8179H14.7479V205.218C12.7487 189.804 11.1394 177.193 10.0199 168.494C9.74 166.315 9.49011 164.342 9.2802 162.692C9.22022 162.266 9.17024 161.862 9.12027 161.478C9.03374 161.009 9.00019 160.532 9.02031 160.056C9.04757 159.399 9.23317 158.76 9.56008 158.198C9.77499 157.806 10.0622 157.462 10.4053 157.186C10.7483 156.91 11.1405 156.707 11.5592 156.589C11.7664 156.52 11.9817 156.482 12.199 156.474L12.3789 156.464Z" fill="black"/>
<path d="M69.7952 204.492C69.7152 204.492 67.956 193.863 65.8669 180.722C63.7778 167.581 62.1484 156.911 62.2284 156.848C62.3084 156.786 64.0576 167.477 66.1568 180.629C68.2559 193.78 69.8752 204.482 69.7952 204.492Z" fill="black"/>
<path fill-rule="evenodd" clip-rule="evenodd" d="M28.2119 171.812H45.6097L47.8931 188.251H31.0015L28.2119 171.812ZM31.0544 174.29L33.0029 185.773H45.1389L43.544 174.29H31.0544Z" fill="#FF0532"/>
<path d="M39.897 185.31L33.6396 180.099L39.2073 174.639L39.1873 178.002L37.1082 179.954L39.3572 181.822L39.897 185.31Z" fill="#FF0532"/>
</svg>
