<svg xmlns="http://www.w3.org/2000/svg" width="157" height="29" viewBox="0 0 157 29" fill="none">
  <path d="M0.5625 27.9984V16.0845H3.79703V24.9346H6.77771V16.0845H10.0122V24.9346H12.9929V16.0845H16.2275V27.9984H0.5625Z" fill="#211C35"/>
  <path d="M18.6562 27.9984V16.0845H21.8908V20.6802L25.8037 16.0845H29.5504L25.296 21.0216L29.8918 28.0028H26.1451L23.1645 23.4902L21.8864 24.939V28.0028H18.6562V27.9984Z" fill="#211C35"/>
  <path d="M31.84 26.5099C30.5751 25.2887 29.9404 23.8006 29.9404 22.041C29.9404 20.2815 30.5751 18.7934 31.84 17.5722C33.1049 16.3511 34.685 15.7427 36.5802 15.7427C38.4754 15.7427 40.0555 16.3511 41.3204 17.5722C42.5853 18.7934 43.22 20.2815 43.22 22.041C43.22 23.8006 42.5853 25.2887 41.3204 26.5099C40.0555 27.731 38.4754 28.3394 36.5802 28.3394C34.685 28.3394 33.1049 27.7266 31.84 26.5099ZM34.221 19.6819C33.582 20.3253 33.2581 21.1088 33.2581 22.041C33.2581 22.9733 33.5776 23.7568 34.221 24.4002C34.8644 25.0436 35.6479 25.3631 36.5802 25.3631C37.5125 25.3631 38.2959 25.0436 38.9393 24.4002C39.5828 23.7612 39.9023 22.9733 39.9023 22.041C39.9023 21.1088 39.5828 20.3253 38.9393 19.6819C38.3003 19.0429 37.5125 18.719 36.5802 18.719C35.6479 18.719 34.8644 19.0429 34.221 19.6819Z" fill="#211C35"/>
  <path d="M43.6973 27.9979V25.0172C43.8111 25.061 43.8942 25.0916 43.9511 25.1004C44.1437 25.1573 44.3144 25.1836 44.4632 25.1836C44.7346 25.1836 44.9753 25.1135 45.1854 24.9691C45.3955 24.829 45.5925 24.5708 45.7719 24.2031C45.9514 23.8355 46.0914 23.284 46.1877 22.553C46.284 21.8221 46.3322 20.9161 46.3322 19.8394V16.0796H55.5237V27.9935H52.2891V19.1434H49.5667V19.8262C49.5667 21.1437 49.4967 22.2992 49.3522 23.2884C49.2122 24.2819 49.0196 25.096 48.7832 25.7307C48.5469 26.3653 48.2405 26.8818 47.8728 27.2713C47.5052 27.6609 47.1156 27.9366 46.7042 28.0986C46.2971 28.2561 45.8288 28.3349 45.308 28.3349C44.9447 28.3349 44.5683 28.278 44.1831 28.1642C43.9949 28.1117 43.8329 28.0548 43.6973 27.9979Z" fill="#211C35"/>
  <path d="M56.5117 27.9984L61.0243 16.0845H64.5959L69.1085 27.9984H65.6201L64.7709 25.4467H60.858L60.0089 27.9984H56.5117ZM61.7027 22.8074H63.9175L62.8451 19.4022H62.7751L61.7027 22.8074Z" fill="#211C35"/>
  <path d="M73.5518 27.9984V16.0845H82.2312V18.8944H76.7863V20.1725H79.0842C80.3447 20.1725 81.3689 20.5445 82.1568 21.2886C82.9446 22.0327 83.3385 22.965 83.3385 24.0898C83.3385 25.2147 82.9446 26.147 82.1568 26.8911C81.3689 27.6351 80.3447 28.0072 79.0842 28.0072H73.5518V27.9984ZM76.7863 25.1884H78.9135C79.2549 25.1884 79.535 25.079 79.7626 24.8645C79.9902 24.6501 80.104 24.3875 80.104 24.0811C80.104 23.7747 79.9902 23.5121 79.7626 23.2976C79.535 23.0831 79.2505 22.9737 78.9135 22.9737H76.7863V25.1884Z" fill="#211C35"/>
  <path d="M84.9229 27.9984V16.0845H88.1574V22.6367L93.2652 16.0845H96.0752V27.9984H92.8407V21.4462L87.7328 27.9984H84.9229Z" fill="#211C35"/>
  <path d="M97.3125 26.2959L99.1858 24.2519C99.3653 24.4795 99.606 24.6677 99.8993 24.8121C100.512 25.1754 101.182 25.3548 101.908 25.3548C102.477 25.3548 102.902 25.2542 103.186 25.0572C103.471 24.8602 103.611 24.6195 103.611 24.335C103.611 24.0505 103.48 23.8098 103.213 23.6128C102.946 23.4159 102.569 23.3152 102.079 23.3152H100.547V20.5928H101.825C102.311 20.5928 102.674 20.5096 102.915 20.3389C103.151 20.1682 103.274 19.9406 103.274 19.6561C103.274 19.0302 102.762 18.7194 101.742 18.7194C101.252 18.7194 100.735 18.8595 100.192 19.144C100.022 19.2359 99.8292 19.376 99.6148 19.5686L97.7414 17.5245C98.0828 17.1831 98.468 16.8899 98.8969 16.6404C99.873 16.0408 100.963 15.7388 102.166 15.7388C103.598 15.7388 104.718 16.0714 105.537 16.7367C106.355 17.402 106.762 18.203 106.762 19.144C106.762 19.9712 106.403 20.654 105.69 21.188C105.384 21.4025 105.033 21.5732 104.635 21.7001C105.112 21.8577 105.519 22.0678 105.861 22.3304C106.688 22.9563 107.104 23.7398 107.104 24.6808C107.104 25.7137 106.67 26.5804 105.804 27.2851C104.937 27.9897 103.725 28.3399 102.171 28.3399C100.867 28.3399 99.676 27.9985 98.5949 27.3201C98.1003 27.0224 97.6758 26.681 97.3125 26.2959Z" fill="#211C35"/>
  <path d="M108.768 27.9984V16.0845H112.002V20.4264H116.344V16.0845H119.579V27.9984H116.344V23.4858H112.002V27.9984H108.768Z" fill="#211C35"/>
  <path d="M122.012 27.9984V16.0845H131.12V18.9776H125.246V20.6802H129.759V23.4027H125.246V25.1053H131.291V27.9984H122.012Z" fill="#211C35"/>
  <path d="M142.238 23.8268L144.194 26.0415C143.809 26.4836 143.367 26.8688 142.868 27.197C141.756 27.9586 140.47 28.3394 139.003 28.3394C137.108 28.3394 135.528 27.731 134.263 26.5099C132.998 25.2887 132.364 23.8006 132.364 22.041C132.364 20.2815 132.998 18.7934 134.263 17.5722C135.528 16.3511 137.108 15.7427 139.003 15.7427C140.435 15.7427 141.708 16.1278 142.833 16.8982C143.332 17.2483 143.757 17.6291 144.111 18.0406L142.155 20.2553C141.892 19.9708 141.603 19.7169 141.288 19.4893C140.548 18.9772 139.791 18.7233 139.008 18.7233C138.075 18.7233 137.292 19.0429 136.649 19.6863C136.009 20.3297 135.686 21.1131 135.686 22.0454C135.686 22.9777 136.005 23.7612 136.649 24.4046C137.292 25.048 138.075 25.3675 139.008 25.3675C139.778 25.3675 140.553 25.1136 141.323 24.6015C141.656 24.3652 141.962 24.1113 142.238 23.8268Z" fill="#211C35"/>
  <path d="M144.161 27.9984L148.674 16.0845H152.25L156.762 27.9984H153.274L152.425 25.4467H148.512L147.663 27.9984H144.161ZM149.352 22.8074H151.567L150.495 19.4022H150.424L149.352 22.8074Z" fill="#211C35"/>
  <path d="M9.87625 8.7443L11.8327 10.959C11.4476 11.4011 11.0055 11.7863 10.5065 12.1145C9.3948 12.8761 8.10798 13.2569 6.64172 13.2569C4.74652 13.2569 3.16646 12.6485 1.90153 11.4273C0.636603 10.2062 0.00195312 8.71804 0.00195312 6.95852C0.00195312 5.19901 0.636603 3.71086 1.90153 2.4897C3.16646 1.26855 4.74652 0.660156 6.64172 0.660156C8.07297 0.660156 9.34665 1.04532 10.4715 1.81566C10.9705 2.16581 11.395 2.5466 11.7496 2.95803L9.79309 5.17275C9.53048 4.88825 9.2416 4.63439 8.92647 4.40679C8.18677 3.89469 7.42957 3.64083 6.6461 3.64083C5.71382 3.64083 4.93035 3.96034 4.28695 4.60375C3.64792 5.24716 3.32402 6.03062 3.32402 6.96291C3.32402 7.89519 3.64354 8.67865 4.28695 9.32206C4.93035 9.96546 5.71382 10.285 6.6461 10.285C7.41644 10.285 8.19115 10.0311 8.96148 9.51902C9.29413 9.28267 9.60051 9.0288 9.87625 8.7443Z" fill="#211C35"/>
  <path d="M13.2461 12.9154V1.00146H16.4806V7.5537L21.5885 1.00146H24.3985V12.9154H21.1639V6.36318L16.0561 12.9154H13.2461Z" fill="#211C35"/>
  <path d="M26.8281 12.9154V1.00146H30.0627V5.34336H34.4046V1.00146H37.6391V12.9154H34.4046V8.40282H30.0627V12.9154H26.8281Z" fill="#211C35"/>
  <path d="M40.0723 12.9154V1.00146H49.1806V3.8946H43.3068V5.59722H47.8194V8.31965H43.3068V10.0223H49.3513V12.9154H40.0723Z" fill="#211C35"/>
  <path d="M51.1016 12.9154V1.00146H56.4633C57.7676 1.00146 58.8312 1.39539 59.654 2.18323C60.4769 2.97108 60.8883 3.96901 60.8883 5.17266C60.8883 6.37631 60.4769 7.36987 59.654 8.16209C58.8312 8.94993 57.7676 9.34385 56.4633 9.34385H54.3361V12.9198H51.1016V12.9154ZM54.3361 6.44634H56.2926C56.6646 6.44634 56.9885 6.31941 57.2555 6.06555C57.5225 5.81169 57.6538 5.51406 57.6538 5.17266C57.6538 4.83126 57.5225 4.53363 57.2555 4.27977C56.9885 4.02591 56.669 3.8946 56.2926 3.8946H54.3361V6.44634Z" fill="#211C35"/>
  <path d="M62.6445 12.9154V1.00146H70.9869V4.0653H65.8791V12.9154H62.6445Z" fill="#211C35"/>
  <path d="M72.3965 12.9154V1.00146H75.631V7.5537L80.7389 1.00146H83.5488V12.9154H80.3143V6.36318L75.2065 12.9154H72.3965Z" fill="#211C35"/>
  <path d="M85.0449 12.9154L87.5135 8.49035C87.1283 8.3109 86.7869 8.06142 86.4937 7.74191C85.8109 7.05911 85.4739 6.17497 85.4739 5.08512C85.4739 3.92962 85.8809 2.95794 86.6994 2.17448C87.5179 1.39101 88.5552 1.00146 89.8157 1.00146H95.4357V12.9154H92.2012V9.16877H90.4154L88.4589 12.9154H85.0449ZM89.9821 6.27564H92.1968V3.89023H89.9821C89.61 3.89023 89.2993 4.00403 89.0629 4.23162C88.8266 4.45922 88.704 4.74372 88.704 5.08074C88.704 5.42214 88.8222 5.70664 89.0629 5.92987C89.2993 6.16184 89.6057 6.27564 89.9821 6.27564Z" fill="#211C35"/>
</svg>