<svg xmlns="http://www.w3.org/2000/svg" width="36" height="36" viewBox="0 0 36 36" fill="none">
  <path fill-rule="evenodd" clip-rule="evenodd" d="M35.38 17.22H23.17C21.8439 17.22 20.5721 16.6932 19.6345 15.7555C18.6968 14.8179 18.17 13.5461 18.17 12.22V0.0100098H17.22V12.21C17.22 12.8666 17.0907 13.5168 16.8394 14.1234C16.5881 14.73 16.2198 15.2813 15.7555 15.7455C15.2912 16.2098 14.74 16.5781 14.1334 16.8294C13.5268 17.0807 12.8766 17.21 12.22 17.21H0V18.14H12.23C13.5561 18.14 14.8279 18.6668 15.7655 19.6045C16.7032 20.5422 17.23 21.8139 17.23 23.14V35.37H18.17V23.15C18.17 21.8239 18.6968 20.5522 19.6345 19.6145C20.5721 18.6768 21.8439 18.15 23.17 18.15H35.38V17.22Z" fill="#C99C5E"/>
</svg>