<svg xmlns="http://www.w3.org/2000/svg" width="33" height="33" viewBox="0 0 33 33" fill="none">
  <rect x="0.5" y="0.5" width="31.293" height="31.293" rx="15.6465" stroke="#211C35"/>
  <path fill-rule="evenodd" clip-rule="evenodd" d="M19.7757 22.847C19.8951 22.926 20.0335 22.9763 20.1785 22.9934C20.3236 23.0106 20.4709 22.994 20.6076 22.9453C20.7439 22.8973 20.8653 22.8183 20.9608 22.7153C21.0563 22.6124 21.123 22.4888 21.1547 22.3558C21.7993 19.4923 23.3807 12.2354 23.9877 9.66668C24.0092 9.56964 24.0024 9.46899 23.9682 9.37522C23.934 9.28144 23.8736 9.19797 23.7932 9.13348C23.7129 9.06899 23.6156 9.02584 23.5114 9.00853C23.4072 8.99121 23.2999 9.00037 23.2008 9.03503C20.038 10.0878 10.3622 13.4917 6.40494 14.8602C6.28339 14.9026 6.17904 14.9795 6.10647 15.0802C6.0339 15.1809 5.99675 15.3003 6.00022 15.4217C5.99811 15.5477 6.04023 15.6709 6.12011 15.7723C6.19999 15.8737 6.31323 15.9478 6.44242 15.9831C8.21868 16.4814 10.5496 17.1763 10.5496 17.1763C10.5496 17.1763 11.6363 20.1941 12.2059 21.7873C12.2384 21.885 12.2967 21.9735 12.3752 22.0446C12.4538 22.1157 12.5502 22.1672 12.6556 22.1943C12.7619 22.2183 12.8729 22.2173 12.9788 22.1916C13.0847 22.1659 13.1821 22.1162 13.2627 22.047L15.5861 19.9976C15.5861 19.9976 18.2617 21.8364 19.7757 22.847ZM11.5314 16.7552L12.7905 20.6433L13.0753 18.1799L20.6975 11.7722C20.7333 11.7359 20.7532 11.6882 20.7532 11.6388C20.7532 11.5894 20.7333 11.5418 20.6975 11.5055C20.6661 11.4662 20.6197 11.4399 20.5679 11.432C20.5162 11.4242 20.4633 11.4354 20.4202 11.4634L11.5314 16.7552Z" fill="#211C35"/>
</svg>