<svg xmlns="http://www.w3.org/2000/svg" width="81" height="69" viewBox="0 0 81 69" fill="none">
  <path d="M80.171 23.1501L60.778 1.36852C60.6743 1.27088 60.5512 1.2027 60.4191 1.16973C60.287 1.13677 60.1498 1.13999 60.0191 1.17912C59.8965 1.23375 59.7891 1.32387 59.7076 1.44032C59.6262 1.55676 59.5736 1.69537 59.5554 1.84203V3.83078C59.0497 2.98372 58.3657 2.2899 57.5641 1.81083C56.7625 1.33176 55.868 1.08225 54.96 1.08442H40.7947C40.5949 1.09932 40.4038 1.18186 40.2466 1.32117L31.1403 11.6437L21.8653 1.22646C21.7616 1.12883 21.6386 1.06064 21.5065 1.02768C21.3744 0.994711 21.2372 0.997932 21.1065 1.03706C21.0599 1.04595 21.0161 1.06799 20.9792 1.10113C20.9424 1.13426 20.9136 1.1774 20.8957 1.22646L1.46043 23.0553C1.3735 23.1718 1.3128 23.31 1.28345 23.4584C1.25409 23.6067 1.25696 23.7608 1.2918 23.9077C1.29971 23.96 1.31934 24.0091 1.34884 24.0505C1.37834 24.092 1.41675 24.1243 1.46043 24.1444L20.8535 45.9259L40.2466 67.7075C40.303 67.7836 40.3741 67.8444 40.4544 67.8854C40.5347 67.9264 40.6222 67.9465 40.7103 67.9442C40.8155 67.952 40.9198 67.9185 41.0055 67.8495C41.052 67.8407 41.0958 67.8186 41.1327 67.7855C41.1695 67.7523 41.1983 67.7092 41.2162 67.6601L60.6093 45.8786L80.0024 24.0971C80.0867 24.0024 80.171 23.9077 80.171 23.8603C80.4661 23.6709 80.3818 23.3395 80.171 23.1501ZM20.8114 43.5584L3.69485 24.3812H20.7692L20.8114 43.5584ZM20.8114 22.9133H3.69485L11.958 13.5378H20.6849V22.9133H20.8114ZM20.8114 11.9752H13.3914L20.7692 3.68873V11.9752H20.8114ZM22.1183 24.3812H39.1926L22.1183 43.5584V24.3812ZM40.1623 65.4346L22.4134 45.4998L40.1623 25.565V65.4346ZM40.1623 22.9133H22.1183V3.73608L30.6344 13.3957C30.6945 13.4739 30.769 13.5366 30.8526 13.5796C30.9363 13.6226 31.0272 13.6448 31.1192 13.6448C31.2112 13.6448 31.3021 13.6226 31.3858 13.5796C31.4694 13.5366 31.5439 13.4739 31.604 13.3957L40.2044 3.73608V22.9133H40.1623ZM68.2822 11.9752H65.1625C64.6131 11.9802 64.0684 11.8624 63.56 11.6286C63.0516 11.3948 62.5897 11.0497 62.2012 10.6134C61.8127 10.1771 61.5055 9.65832 61.2973 9.08729C61.0891 8.51627 60.9843 7.90443 60.9888 7.28742V3.68873L68.2822 11.9752ZM41.5114 2.647H54.9179C55.4666 2.64449 56.0103 2.76404 56.5177 2.99874C57.0251 3.23343 57.4861 3.57863 57.8741 4.01443C58.2621 4.45023 58.5695 4.968 58.7784 5.53788C58.9874 6.10775 59.0938 6.71845 59.0916 7.33476C59.0916 9.74967 57.4052 12.0225 55.213 12.0225H50.8285C50.6496 12.0225 50.478 12.1024 50.3515 12.2444C50.225 12.3865 50.1539 12.5792 50.1539 12.7801C50.1539 12.9811 50.225 13.1738 50.3515 13.3159C50.478 13.4579 50.6496 13.5378 50.8285 13.5378H55.1287C57.2788 13.5378 59.0073 15.7159 59.0073 18.2255C59.0095 18.8418 58.9031 19.4525 58.6941 20.0224C58.4852 20.5923 58.1778 21.1101 57.7898 21.5459C57.4018 21.9817 56.9408 22.3269 56.4334 22.5616C55.926 22.7963 55.3823 22.9158 54.8336 22.9133H41.427V2.647H41.5114ZM41.5114 65.4346V46.2574H58.5857L41.5114 65.4346ZM59.5554 44.6948H41.5114V24.4285H59.5554V44.6948ZM59.5554 22.9133H58.5857C58.9726 22.5537 59.3007 22.121 59.5554 21.6348V22.9133ZM60.9888 43.5584V24.3812H78.0631L60.9888 43.5584ZM60.9888 22.9133V18.2255C60.9888 15.9053 62.8437 13.5378 65.036 13.5378H69.7156L78.0631 22.9133H60.9888Z" fill="white" stroke="white" stroke-width="0.688889"/>
</svg>