<svg xmlns="http://www.w3.org/2000/svg" width="54" height="74" viewBox="0 0 54 74" fill="none">
  <path d="M21.9176 13.4062H10.2188C9.57717 13.4062 9.05704 13.9264 9.05704 14.568C9.05704 15.2096 9.57717 15.7297 10.2188 15.7297H21.9176C22.5592 15.7297 23.0793 15.2096 23.0793 14.568C23.0793 13.9264 22.5592 13.4062 21.9176 13.4062Z" fill="white"/>
  <path d="M21.9176 18.0532H10.2188C9.57717 18.0532 9.05704 18.5734 9.05704 19.215C9.05704 19.8566 9.57717 20.3767 10.2188 20.3767H21.9176C22.5592 20.3767 23.0793 19.8566 23.0793 19.215C23.0793 18.5734 22.5592 18.0532 21.9176 18.0532Z" fill="white"/>
  <path d="M41.8556 25.0236H10.2188C9.57717 25.0236 9.05704 25.5437 9.05704 26.1853C9.05704 26.8269 9.57716 27.347 10.2188 27.347H41.8556C42.4972 27.347 43.0173 26.8269 43.0173 26.1853C43.0173 25.5437 42.4972 25.0236 41.8556 25.0236Z" fill="white"/>
  <path d="M41.8556 29.6709H10.2188C9.57717 29.6709 9.05704 30.191 9.05704 30.8326C9.05704 31.4742 9.57716 31.9944 10.2188 31.9944H41.8556C42.4972 31.9944 43.0173 31.4742 43.0173 30.8326C43.0173 30.191 42.4972 29.6709 41.8556 29.6709Z" fill="white"/>
  <path d="M38.8978 34.3175H10.2188C9.57717 34.3175 9.05704 34.8376 9.05704 35.4792C9.05704 36.1209 9.57717 36.641 10.2188 36.641H38.8978C39.5394 36.641 40.0595 36.1209 40.0595 35.4792C40.0595 34.8376 39.5394 34.3175 38.8978 34.3175Z" fill="white"/>
  <path d="M41.8551 48.8394H31.0327C30.391 48.8394 29.8709 49.3595 29.8709 50.0011C29.8709 50.6427 30.391 51.1628 31.0327 51.1628H41.8551C42.4967 51.1628 43.0168 50.6427 43.0168 50.0011C43.0168 49.3595 42.4967 48.8394 41.8551 48.8394Z" fill="white"/>
  <path d="M0.983042 0.628691C0.601997 0.627867 0.292664 0.936534 0.292664 1.31758V66.1575C0.292664 66.5379 0.60109 66.8464 0.981553 66.8464H10.2301C10.6105 66.8464 10.9189 67.1548 10.9189 67.5353V72.2888C10.9189 72.816 11.4871 73.1478 11.9463 72.8888L15.7149 70.763C15.9327 70.6401 16.2 70.645 16.4132 70.7756L19.9487 72.9419C20.4077 73.2231 20.9975 72.8928 20.9975 72.3545V67.6514C20.9975 67.271 21.3059 66.9625 21.6864 66.9625H53.2829C53.6634 66.9625 53.9718 66.6541 53.9718 66.2737V1.43077C53.9718 1.05089 53.6643 0.742706 53.2844 0.741884L0.983042 0.628691ZM18.8065 68.3081C18.8065 68.8421 18.2251 69.1731 17.7659 68.9004L16.4181 68.1C16.202 67.9717 15.9332 67.9712 15.7167 68.0988L14.1485 69.0227C13.6893 69.2932 13.1099 68.9621 13.1099 68.4291V62.8075C13.1099 62.337 13.5721 62.0045 14.0315 62.1057C15.3023 62.3856 16.6141 62.3856 17.8849 62.1057C18.3443 62.0045 18.8065 62.337 18.8065 62.8075V68.3081ZM15.9582 59.8759C14.4415 59.8759 12.9589 59.399 11.6979 58.5054C10.4368 57.6118 9.4539 56.3418 8.87349 54.8558C8.29308 53.3698 8.14122 51.7347 8.43711 50.1572C8.733 48.5798 9.46335 47.1307 10.5358 45.9934C11.6083 44.8561 12.9746 44.0816 14.4622 43.7678C15.9497 43.4541 17.4916 43.6151 18.8928 44.2306C20.294 44.8461 21.4917 45.8884 22.3343 47.2258C23.1769 48.5631 23.6267 50.1354 23.6267 51.7438C23.6267 53.9005 22.8187 55.969 21.3806 57.4941C19.9425 59.0192 17.992 59.8759 15.9582 59.8759ZM51.7808 63.834C51.7808 64.2145 51.4724 64.5229 51.092 64.5229H21.6864C21.3059 64.5229 20.9975 64.2145 20.9975 63.834V61.0692C20.9975 60.8326 21.1199 60.6141 21.3149 60.4803C23.0181 59.3114 24.3427 57.6116 25.1032 55.6101C25.9103 53.4859 26.0374 51.1395 25.4651 48.9313C24.8927 46.723 23.6525 44.7752 21.935 43.3869C20.2176 41.9986 18.1177 41.2467 15.9582 41.2467C13.7987 41.2467 11.6989 41.9986 9.98138 43.3869C8.26389 44.7752 7.02371 46.723 6.45136 48.9313C5.87901 51.1395 6.00616 53.4859 6.81327 55.6101C7.57376 57.6116 8.8983 59.3114 10.6015 60.4803C10.7966 60.6141 10.9189 60.8326 10.9189 61.0692V63.834C10.9189 64.2145 10.6105 64.5229 10.2301 64.5229H3.17254C2.79208 64.5229 2.48365 64.2145 2.48365 63.834V3.63956C2.48365 3.2591 2.79208 2.95068 3.17254 2.95068H51.092C51.4724 2.95068 51.7808 3.2591 51.7808 3.63957V63.834Z" fill="white"/>
  <path d="M30.1115 11.3501C28.8256 11.4139 27.6124 12.0006 26.7237 12.9881C25.835 13.9757 25.3392 15.2884 25.3392 16.6534C25.3392 18.0185 25.835 19.3312 26.7237 20.3187C27.6124 21.3063 28.8256 21.8929 30.1115 21.9568C31.3973 21.8929 32.6105 21.3063 33.4992 20.3187C34.3879 19.3312 34.8837 18.0185 34.8837 16.6534C34.8837 15.2884 34.3879 13.9757 33.4992 12.9881C32.6105 12.0006 31.3973 11.4139 30.1115 11.3501ZM33.6389 13.6736H32.5434C32.347 13.1039 32.0495 12.5795 31.6671 12.1285C32.4432 12.4522 33.1239 12.9895 33.6389 13.6852V13.6736ZM25.5323 16.88H27.1317C27.147 17.6311 27.2537 18.3769 27.4494 19.0989H26.1786C25.8012 18.4279 25.5796 17.6713 25.5323 16.8916V16.88ZM30.3196 13.6736V11.8729C30.7155 12.0128 31.0746 12.2499 31.3677 12.5649C31.6609 12.8798 31.8798 13.2636 32.0067 13.6852L30.3196 13.6736ZM32.171 14.1731C32.3985 14.8886 32.5205 15.6371 32.5325 16.392H30.3415V14.1847L32.171 14.1731ZM29.8485 11.8496V13.662H28.1615C28.2889 13.2433 28.5084 12.8628 28.8017 12.5518C29.095 12.2407 29.4538 12.008 29.8485 11.8729V11.8496ZM29.8485 14.1731V16.392H27.6575C27.6804 15.6382 27.8021 14.8914 28.0191 14.1731H29.8485ZM27.1317 16.4037H25.5323C25.5672 15.6179 25.7896 14.8545 26.1786 14.1847H27.4823C27.2701 14.9039 27.1522 15.6505 27.1317 16.4037ZM27.5918 16.8916H29.7828V19.1105H27.9752C27.7514 18.3944 27.6332 17.646 27.6247 16.8916H27.5918ZM29.7828 19.6101V21.4456C29.3834 21.3033 29.0213 21.0628 28.7262 20.7438C28.4312 20.4248 28.2114 20.0363 28.0848 19.6101H29.7828ZM30.2539 21.4456V19.6101H31.9519C31.8304 20.0281 31.6201 20.411 31.3371 20.7292C31.0541 21.0474 30.706 21.2925 30.3196 21.4456H30.2539ZM30.2539 19.1221V16.8916H32.4449C32.4291 17.6443 32.3148 18.3911 32.1053 19.1105L30.2539 19.1221ZM32.9269 16.9032H34.5372C34.5044 17.6861 34.2899 18.4482 33.9128 19.1221H32.6749C32.8769 18.3976 32.9838 17.6471 32.9926 16.8916L32.9269 16.9032ZM32.9269 16.4153C32.9171 15.6637 32.8102 14.9171 32.6092 14.1964H33.9019C34.2871 14.8672 34.5057 15.6306 34.5372 16.4153H32.9269ZM28.523 12.1285C28.1407 12.586 27.84 13.1135 27.6356 13.6852H26.5401C27.0582 12.9879 27.7428 12.4504 28.523 12.1285ZM26.4854 19.6101H27.5809C27.7847 20.1915 28.0894 20.7274 28.4792 21.19C27.6943 20.86 27.0063 20.3147 26.4854 19.6101ZM31.6342 21.1668C32.0227 20.7162 32.3209 20.1866 32.5106 19.6101H33.6061C33.1023 20.3179 32.4181 20.858 31.6342 21.1668Z" fill="white"/>
</svg>